<svg width="170" height="170" viewBox="0 0 170 170" fill="none" xmlns="http://www.w3.org/2000/svg">
<path d="M18.7188 96.5894H40.724C44.6147 96.5894 48.3461 98.0993 51.0973 100.787C53.8485 103.475 55.3941 107.12 55.3941 110.921V132.418C55.3941 136.219 53.8485 139.865 51.0973 142.552C48.3461 145.24 44.6147 146.75 40.724 146.75H33.3889C29.4981 146.75 25.7667 145.24 23.0155 142.552C20.2643 139.865 18.7188 136.219 18.7188 132.418V82.2578C18.7188 65.1534 25.6739 48.7496 38.0543 36.6549C50.4346 24.5603 67.2259 17.7656 84.7344 17.7656C102.243 17.7656 119.034 24.5603 131.414 36.6549C143.795 48.7496 150.75 65.1534 150.75 82.2578V132.418C150.75 136.219 149.204 139.865 146.453 142.552C143.702 145.24 139.971 146.75 136.08 146.75H128.745C124.854 146.75 121.123 145.24 118.371 142.552C115.62 139.865 114.075 136.219 114.075 132.418V110.921C114.075 107.12 115.62 103.475 118.371 100.787C121.123 98.0993 124.854 96.5894 128.745 96.5894H150.75" stroke="#25334D" stroke-width="12" stroke-linecap="round" stroke-linejoin="round"/>
</svg>
