<svg width="96" height="96" viewBox="0 0 96 96" fill="none" xmlns="http://www.w3.org/2000/svg">
<path d="M72 32C72 46.452 56.524 61.716 50.428 67.18C49.7307 67.7126 48.8775 68.0012 48 68.0012C47.1225 68.0012 46.2693 67.7126 45.572 67.18C39.48 61.716 24 46.452 24 32C24 25.6348 26.5286 19.5303 31.0294 15.0294C35.5303 10.5286 41.6348 8 48 8C54.3652 8 60.4697 10.5286 64.9706 15.0294C69.4714 19.5303 72 25.6348 72 32Z" stroke="#25334D" stroke-width="8" stroke-linecap="round" stroke-linejoin="round"/>
<path d="M48 40C52.4183 40 56 36.4183 56 32C56 27.5817 52.4183 24 48 24C43.5817 24 40 27.5817 40 32C40 36.4183 43.5817 40 48 40Z" stroke="#25334D" stroke-width="8" stroke-linecap="round" stroke-linejoin="round"/>
<path d="M34.856 56H20.016C19.1773 56.0004 18.36 56.2643 17.6795 56.7546C16.999 57.2448 16.4899 57.9366 16.224 58.732L8.20801 82.732C8.00705 83.3332 7.95187 83.9736 8.04703 84.6004C8.14218 85.2272 8.38494 85.8223 8.75529 86.3368C9.12564 86.8513 9.61298 87.2705 10.1771 87.5596C10.7413 87.8488 11.3661 87.9997 12 88H84C84.6335 87.9995 85.2578 87.8486 85.8215 87.5596C86.3852 87.2707 86.8723 86.852 87.2425 86.338C87.6128 85.824 87.8557 85.2294 87.9512 84.6032C88.0468 83.977 87.9922 83.337 87.792 82.736L79.792 58.736C79.5266 57.9392 79.0171 57.2461 78.3358 56.755C77.6545 56.264 76.8359 55.9998 75.996 56H61.148" stroke="#25334D" stroke-width="8" stroke-linecap="round" stroke-linejoin="round"/>
</svg>
