<svg width="17" height="17" viewBox="0 0 17 17" fill="none" xmlns="http://www.w3.org/2000/svg">
<path d="M7.99716 0.345605C8.14683 -0.11505 8.79854 -0.11505 8.94822 0.345605L10.6056 5.44642C10.6725 5.65243 10.8645 5.79191 11.0811 5.79191H16.4444C16.9288 5.79191 17.1302 6.41172 16.7383 6.69642L12.3993 9.84889C12.224 9.97622 12.1507 10.2019 12.2177 10.4079L13.875 15.5087C14.0247 15.9694 13.4974 16.3524 13.1056 16.0677L8.76658 12.9153C8.59134 12.7879 8.35404 12.7879 8.17879 12.9153L3.83978 16.0677C3.44793 16.3524 2.92069 15.9694 3.07036 15.5087L4.72772 10.4079C4.79465 10.2019 4.72132 9.97622 4.54608 9.84889L0.207071 6.69642C-0.184786 6.41172 0.0166019 5.79191 0.500963 5.79191H5.86428C6.08089 5.79191 6.27287 5.65243 6.3398 5.44642L7.99716 0.345605Z" fill="#E9EE5D"/>
</svg>
